<svg id="visual" viewBox="0 0 1280 130" width="1280" height="130" xmlns="http://www.w3.org/2000/svg" xmlns:xlink="http://www.w3.org/1999/xlink" version="1.1"><path d="M0 44L15.2 43.3C30.3 42.7 60.7 41.3 91.2 38C121.7 34.7 152.3 29.3 182.8 30.3C213.3 31.3 243.7 38.7 274.2 40.5C304.7 42.3 335.3 38.7 365.8 37.3C396.3 36 426.7 37 457.2 39.2C487.7 41.3 518.3 44.7 548.8 40.7C579.3 36.7 609.7 25.3 640 17.5C670.3 9.7 700.7 5.3 731.2 11C761.7 16.7 792.3 32.3 822.8 39C853.3 45.7 883.7 43.3 914.2 39.5C944.7 35.7 975.3 30.3 1005.8 26.3C1036.3 22.3 1066.7 19.7 1097.2 20.2C1127.7 20.7 1158.3 24.3 1188.8 21.5C1219.3 18.7 1249.7 9.3 1264.8 4.7L1280 0L1280 131L1264.8 131C1249.7 131 1219.3 131 1188.8 131C1158.3 131 1127.7 131 1097.2 131C1066.7 131 1036.3 131 1005.8 131C975.3 131 944.7 131 914.2 131C883.7 131 853.3 131 822.8 131C792.3 131 761.7 131 731.2 131C700.7 131 670.3 131 640 131C609.7 131 579.3 131 548.8 131C518.3 131 487.7 131 457.2 131C426.7 131 396.3 131 365.8 131C335.3 131 304.7 131 274.2 131C243.7 131 213.3 131 182.8 131C152.3 131 121.7 131 91.2 131C60.7 131 30.3 131 15.2 131L0 131Z" fill="#fa7268"></path><path d="M0 67L15.2 64C30.3 61 60.7 55 91.2 55.8C121.7 56.7 152.3 64.3 182.8 61.2C213.3 58 243.7 44 274.2 40.3C304.7 36.7 335.3 43.3 365.8 45.2C396.3 47 426.7 44 457.2 47.2C487.7 50.3 518.3 59.7 548.8 57.5C579.3 55.3 609.7 41.7 640 40C670.3 38.3 700.7 48.7 731.2 53.5C761.7 58.3 792.3 57.7 822.8 58.2C853.3 58.7 883.7 60.3 914.2 58.5C944.7 56.7 975.3 51.3 1005.8 46.8C1036.3 42.3 1066.7 38.7 1097.2 38.8C1127.7 39 1158.3 43 1188.8 43.7C1219.3 44.3 1249.7 41.7 1264.8 40.3L1280 39L1280 131L1264.8 131C1249.7 131 1219.3 131 1188.8 131C1158.3 131 1127.7 131 1097.2 131C1066.7 131 1036.3 131 1005.8 131C975.3 131 944.7 131 914.2 131C883.7 131 853.3 131 822.8 131C792.3 131 761.7 131 731.2 131C700.7 131 670.3 131 640 131C609.7 131 579.3 131 548.8 131C518.3 131 487.7 131 457.2 131C426.7 131 396.3 131 365.8 131C335.3 131 304.7 131 274.2 131C243.7 131 213.3 131 182.8 131C152.3 131 121.7 131 91.2 131C60.7 131 30.3 131 15.2 131L0 131Z" fill="#eb5967"></path><path d="M0 73L15.2 72.2C30.3 71.3 60.7 69.7 91.2 69.3C121.7 69 152.3 70 182.8 70.7C213.3 71.3 243.7 71.7 274.2 69.5C304.7 67.3 335.3 62.7 365.8 60.5C396.3 58.3 426.7 58.7 457.2 59.8C487.7 61 518.3 63 548.8 65.8C579.3 68.7 609.7 72.3 640 75.5C670.3 78.7 700.7 81.3 731.2 84C761.7 86.7 792.3 89.3 822.8 91C853.3 92.7 883.7 93.3 914.2 94.2C944.7 95 975.3 96 1005.8 94C1036.3 92 1066.7 87 1097.2 85.2C1127.7 83.3 1158.3 84.7 1188.8 84.2C1219.3 83.7 1249.7 81.3 1264.8 80.2L1280 79L1280 131L1264.8 131C1249.7 131 1219.3 131 1188.8 131C1158.3 131 1127.7 131 1097.2 131C1066.7 131 1036.3 131 1005.8 131C975.3 131 944.7 131 914.2 131C883.7 131 853.3 131 822.8 131C792.3 131 761.7 131 731.2 131C700.7 131 670.3 131 640 131C609.7 131 579.3 131 548.8 131C518.3 131 487.7 131 457.2 131C426.7 131 396.3 131 365.8 131C335.3 131 304.7 131 274.2 131C243.7 131 213.3 131 182.8 131C152.3 131 121.7 131 91.2 131C60.7 131 30.3 131 15.2 131L0 131Z" fill="#da3f67"></path><path d="M0 106L15.2 109.7C30.3 113.3 60.7 120.7 91.2 118.2C121.7 115.7 152.3 103.3 182.8 97.2C213.3 91 243.7 91 274.2 90.5C304.7 90 335.3 89 365.8 94.3C396.3 99.7 426.7 111.3 457.2 116.3C487.7 121.3 518.3 119.7 548.8 115.2C579.3 110.7 609.7 103.3 640 103.3C670.3 103.3 700.7 110.7 731.2 114.7C761.7 118.7 792.3 119.3 822.8 114C853.3 108.7 883.7 97.3 914.2 94.8C944.7 92.3 975.3 98.7 1005.8 99.7C1036.3 100.7 1066.7 96.3 1097.2 97C1127.7 97.7 1158.3 103.3 1188.8 108.5C1219.3 113.7 1249.7 118.3 1264.8 120.7L1280 123L1280 131L1264.8 131C1249.7 131 1219.3 131 1188.8 131C1158.3 131 1127.7 131 1097.2 131C1066.7 131 1036.3 131 1005.8 131C975.3 131 944.7 131 914.2 131C883.7 131 853.3 131 822.8 131C792.3 131 761.7 131 731.2 131C700.7 131 670.3 131 640 131C609.7 131 579.3 131 548.8 131C518.3 131 487.7 131 457.2 131C426.7 131 396.3 131 365.8 131C335.3 131 304.7 131 274.2 131C243.7 131 213.3 131 182.8 131C152.3 131 121.7 131 91.2 131C60.7 131 30.3 131 15.2 131L0 131Z" fill="#c62368"></path></svg>